# MagicaVoxel @ Ephtracy

# group
o Level

# material
mtllib Level1-4-Level.mtl
usemtl palette

# normals
vn -1 0 0
vn 1 0 0
vn 0 0 1
vn 0 0 -1
vn 0 -1 0
vn 0 1 0

# texcoords
vt 0.771484 0.5
vt 0.966797 0.5

# verts
v -1.3 0.4 1.4
v -1.3 0.4 -0.6
v -1.3 0.5 1.4
v -1.3 0.5 -0.6
v -1.3 0.8 1.4
v -1.3 0.8 -0.6
v -0.6 0.4 0.6
v -0.6 0.4 0.5
v -0.6 0.5 0.6
v -0.6 0.5 0.5
v -0.0999999 0.4 1
v -0.0999999 0.4 0.9
v -0.0999999 0.5 1.4
v -0.0999999 0.5 1.3
v -0.0999999 0.5 1
v -0.0999999 0.5 0.9
v -0.0999999 0.5 -0.5
v -0.0999999 0.5 -0.6
v -0.0999999 0.8 1.4
v -0.0999999 0.8 1.3
v -0.0999999 0.8 -0.5
v -0.0999999 0.8 -0.6
v 0.1 0.4 0.2
v 0.1 0.4 0.1
v 0.1 0.5 0.2
v 0.1 0.5 0.1
v 0.6 0.5 1.3
v 0.6 0.5 -0.5
v 0.6 0.8 1.3
v 0.6 0.8 -0.5
v -1.2 0.5 1.3
v -1.2 0.5 -0.5
v -1.2 0.8 1.3
v -1.2 0.8 -0.5
v -0.7 0.4 0.6
v -0.7 0.4 0.5
v -0.7 0.5 0.6
v -0.7 0.5 0.5
v -0.6 0.4 1
v -0.6 0.4 0.9
v -0.6 0.5 1
v -0.6 0.5 0.9
v -0.4 0.5 1.4
v -0.4 0.5 1.3
v -0.4 0.5 -0.5
v -0.4 0.5 -0.6
v -0.4 0.8 1.4
v -0.4 0.8 1.3
v -0.4 0.8 -0.5
v -0.4 0.8 -0.6
v 0 0.4 0.2
v 0 0.4 0.1
v 0 0.5 0.2
v 0 0.5 0.1
v 0.7 0.4 1.4
v 0.7 0.4 -0.6
v 0.7 0.5 1.4
v 0.7 0.5 -0.6
v 0.7 0.8 1.4
v 0.7 0.8 -0.6
v -1.3 0.4 1.4
v -1.3 0.5 1.4
v -1.3 0.8 1.4
v -0.4 0.5 1.4
v -0.4 0.8 1.4
v -0.0999999 0.5 1.4
v -0.0999999 0.8 1.4
v 0.7 0.4 1.4
v 0.7 0.5 1.4
v 0.7 0.8 1.4
v -0.6 0.4 0.9
v -0.6 0.5 0.9
v -0.0999999 0.4 0.9
v -0.0999999 0.5 0.9
v -0.7 0.4 0.5
v -0.7 0.5 0.5
v -0.6 0.4 0.5
v -0.6 0.5 0.5
v 0 0.4 0.1
v 0 0.5 0.1
v 0.1 0.4 0.1
v 0.1 0.5 0.1
v -1.2 0.5 -0.5
v -1.2 0.8 -0.5
v -0.4 0.5 -0.5
v -0.4 0.8 -0.5
v -0.0999999 0.5 -0.5
v -0.0999999 0.8 -0.5
v 0.6 0.5 -0.5
v 0.6 0.8 -0.5
v -1.2 0.5 1.3
v -1.2 0.8 1.3
v -0.4 0.5 1.3
v -0.4 0.8 1.3
v -0.0999999 0.5 1.3
v -0.0999999 0.8 1.3
v 0.6 0.5 1.3
v 0.6 0.8 1.3
v -0.6 0.4 1
v -0.6 0.5 1
v -0.0999999 0.4 1
v -0.0999999 0.5 1
v -0.7 0.4 0.6
v -0.7 0.5 0.6
v -0.6 0.4 0.6
v -0.6 0.5 0.6
v 0 0.4 0.2
v 0 0.5 0.2
v 0.1 0.4 0.2
v 0.1 0.5 0.2
v -1.3 0.4 -0.6
v -1.3 0.5 -0.6
v -1.3 0.8 -0.6
v -0.4 0.5 -0.6
v -0.4 0.8 -0.6
v -0.0999999 0.5 -0.6
v -0.0999999 0.8 -0.6
v 0.7 0.4 -0.6
v 0.7 0.5 -0.6
v 0.7 0.8 -0.6
v -1.3 0.4 1.4
v 0.7 0.4 1.4
v -0.6 0.4 1
v -0.0999999 0.4 1
v -0.6 0.4 0.9
v -0.0999999 0.4 0.9
v -0.7 0.4 0.6
v -0.6 0.4 0.6
v -0.7 0.4 0.5
v -0.6 0.4 0.5
v 0 0.4 0.2
v 0.1 0.4 0.2
v 0 0.4 0.1
v 0.1 0.4 0.1
v -1.3 0.4 -0.6
v 0.7 0.4 -0.6
v -0.4 0.5 1.4
v -0.0999999 0.5 1.4
v -1.2 0.5 1.3
v -0.4 0.5 1.3
v -0.0999999 0.5 1.3
v 0.6 0.5 1.3
v -0.6 0.5 1
v -0.0999999 0.5 1
v -0.6 0.5 0.9
v -0.0999999 0.5 0.9
v -0.7 0.5 0.6
v -0.6 0.5 0.6
v -0.7 0.5 0.5
v -0.6 0.5 0.5
v 0 0.5 0.2
v 0.1 0.5 0.2
v 0 0.5 0.1
v 0.1 0.5 0.1
v -1.2 0.5 -0.5
v -0.4 0.5 -0.5
v -0.0999999 0.5 -0.5
v 0.6 0.5 -0.5
v -0.4 0.5 -0.6
v -0.0999999 0.5 -0.6
v -1.3 0.8 1.4
v -0.4 0.8 1.4
v -0.0999999 0.8 1.4
v 0.7 0.8 1.4
v -1.2 0.8 1.3
v -0.4 0.8 1.3
v -0.0999999 0.8 1.3
v 0.6 0.8 1.3
v -1.2 0.8 -0.5
v -0.4 0.8 -0.5
v -0.0999999 0.8 -0.5
v 0.6 0.8 -0.5
v -1.3 0.8 -0.6
v -0.4 0.8 -0.6
v -0.0999999 0.8 -0.6
v 0.7 0.8 -0.6

# faces
f 3/1/1 2/1/1 1/1/1
f 4/1/1 2/1/1 3/1/1
f 5/2/1 4/2/1 3/2/1
f 6/2/1 4/2/1 5/2/1
f 9/1/1 8/1/1 7/1/1
f 10/1/1 8/1/1 9/1/1
f 15/1/1 12/1/1 11/1/1
f 16/1/1 12/1/1 15/1/1
f 19/2/1 14/2/1 13/2/1
f 20/2/1 14/2/1 19/2/1
f 21/2/1 18/2/1 17/2/1
f 22/2/1 18/2/1 21/2/1
f 25/1/1 24/1/1 23/1/1
f 26/1/1 24/1/1 25/1/1
f 29/2/1 28/2/1 27/2/1
f 30/2/1 28/2/1 29/2/1
f 31/2/2 32/2/2 33/2/2
f 33/2/2 32/2/2 34/2/2
f 35/1/2 36/1/2 37/1/2
f 37/1/2 36/1/2 38/1/2
f 39/1/2 40/1/2 41/1/2
f 41/1/2 40/1/2 42/1/2
f 43/2/2 44/2/2 47/2/2
f 47/2/2 44/2/2 48/2/2
f 45/2/2 46/2/2 49/2/2
f 49/2/2 46/2/2 50/2/2
f 51/1/2 52/1/2 53/1/2
f 53/1/2 52/1/2 54/1/2
f 55/1/2 56/1/2 57/1/2
f 57/1/2 56/1/2 58/1/2
f 57/2/2 58/2/2 59/2/2
f 59/2/2 58/2/2 60/2/2
f 64/1/3 62/1/3 61/1/3
f 64/2/3 63/2/3 62/2/3
f 65/2/3 63/2/3 64/2/3
f 66/1/3 64/1/3 61/1/3
f 68/1/3 66/1/3 61/1/3
f 69/2/3 67/2/3 66/2/3
f 69/1/3 66/1/3 68/1/3
f 70/2/3 67/2/3 69/2/3
f 73/1/3 72/1/3 71/1/3
f 74/1/3 72/1/3 73/1/3
f 77/1/3 76/1/3 75/1/3
f 78/1/3 76/1/3 77/1/3
f 81/1/3 80/1/3 79/1/3
f 82/1/3 80/1/3 81/1/3
f 85/2/3 84/2/3 83/2/3
f 86/2/3 84/2/3 85/2/3
f 89/2/3 88/2/3 87/2/3
f 90/2/3 88/2/3 89/2/3
f 91/2/4 92/2/4 93/2/4
f 93/2/4 92/2/4 94/2/4
f 95/2/4 96/2/4 97/2/4
f 97/2/4 96/2/4 98/2/4
f 99/1/4 100/1/4 101/1/4
f 101/1/4 100/1/4 102/1/4
f 103/1/4 104/1/4 105/1/4
f 105/1/4 104/1/4 106/1/4
f 107/1/4 108/1/4 109/1/4
f 109/1/4 108/1/4 110/1/4
f 111/1/4 112/1/4 114/1/4
f 112/2/4 113/2/4 114/2/4
f 114/2/4 113/2/4 115/2/4
f 111/1/4 114/1/4 116/1/4
f 111/1/4 116/1/4 118/1/4
f 116/2/4 117/2/4 119/2/4
f 118/1/4 116/1/4 119/1/4
f 119/2/4 117/2/4 120/2/4
f 123/1/5 122/1/5 121/1/5
f 124/1/5 122/1/5 123/1/5
f 125/1/5 123/1/5 121/1/5
f 126/1/5 122/1/5 124/1/5
f 127/1/5 125/1/5 121/1/5
f 127/1/5 126/1/5 125/1/5
f 128/1/5 126/1/5 127/1/5
f 129/1/5 127/1/5 121/1/5
f 130/1/5 126/1/5 128/1/5
f 131/1/5 122/1/5 126/1/5
f 131/1/5 130/1/5 129/1/5
f 131/1/5 126/1/5 130/1/5
f 132/1/5 122/1/5 131/1/5
f 133/1/5 131/1/5 129/1/5
f 134/1/5 122/1/5 132/1/5
f 135/1/5 129/1/5 121/1/5
f 135/1/5 134/1/5 133/1/5
f 135/1/5 133/1/5 129/1/5
f 136/1/5 122/1/5 134/1/5
f 136/1/5 134/1/5 135/1/5
f 137/1/6 138/1/6 140/1/6
f 140/1/6 138/1/6 141/1/6
f 139/1/6 140/1/6 143/1/6
f 141/1/6 142/1/6 143/1/6
f 140/1/6 141/1/6 143/1/6
f 143/1/6 142/1/6 144/1/6
f 139/1/6 143/1/6 145/1/6
f 144/1/6 142/1/6 146/1/6
f 139/1/6 145/1/6 147/1/6
f 145/1/6 146/1/6 147/1/6
f 147/1/6 146/1/6 148/1/6
f 139/1/6 147/1/6 149/1/6
f 148/1/6 146/1/6 150/1/6
f 146/1/6 142/1/6 151/1/6
f 149/1/6 150/1/6 151/1/6
f 150/1/6 146/1/6 151/1/6
f 151/1/6 142/1/6 152/1/6
f 149/1/6 151/1/6 153/1/6
f 152/1/6 142/1/6 154/1/6
f 139/1/6 149/1/6 155/1/6
f 153/1/6 154/1/6 155/1/6
f 149/1/6 153/1/6 155/1/6
f 155/1/6 154/1/6 156/1/6
f 156/1/6 154/1/6 157/1/6
f 154/1/6 142/1/6 158/1/6
f 157/1/6 154/1/6 158/1/6
f 156/1/6 157/1/6 159/1/6
f 159/1/6 157/1/6 160/1/6
f 161/2/6 162/2/6 165/2/6
f 165/2/6 162/2/6 166/2/6
f 163/2/6 164/2/6 167/2/6
f 167/2/6 164/2/6 168/2/6
f 161/2/6 165/2/6 169/2/6
f 168/2/6 164/2/6 172/2/6
f 169/2/6 170/2/6 173/2/6
f 161/2/6 169/2/6 173/2/6
f 173/2/6 170/2/6 174/2/6
f 171/2/6 172/2/6 175/2/6
f 172/2/6 164/2/6 176/2/6
f 175/2/6 172/2/6 176/2/6
